<?xml version="1.0" encoding="UTF-8"?><svg id="Layer_2" xmlns="http://www.w3.org/2000/svg" viewBox="0 0 69.85 99.53"><defs><style>.cls-1{fill:#e8d9a9;stroke:#e8d9a9;stroke-width:.22px;}.cls-1,.cls-2,.cls-3,.cls-4,.cls-5{stroke-miterlimit:10;}.cls-1,.cls-2,.cls-4,.cls-5{opacity:.5;}.cls-2{fill:#5c9ea5;stroke:#5c9ea5;stroke-width:.43px;}.cls-3{fill:#6088a5;stroke:#6088a5;stroke-width:.34px;}.cls-4{fill:#618246;stroke:#618246;stroke-width:.28px;}.cls-5{fill:#bc7062;stroke:#bc7062;stroke-width:.4px;}</style></defs><g id="Layer_1-2"><g><path class="cls-3" d="M50.21,92.13l-14.76,7.21-15.12-7.21C8.35,86.41,.67,74.36,.56,61.09l-.1-11.67,26.06-12.73c5.28-2.58,11.45-2.61,16.76-.08l26.3,12.55,.1,11.49c.11,13.37-7.46,25.61-19.47,31.48Z"/><path class="cls-2" d="M50.43,86.52l-14.98,11.57-15.41-11.63C7.82,77.23,.59,62.85,.46,47.54L.22,19.03,16.5,6.45c10.66-8.24,25.51-8.32,36.26-.2l16.58,12.52,.24,28.33c.13,15.41-6.95,30-19.15,39.42Z"/><path class="cls-4" d="M32.79,74.9l-.18,.26c-5.39,7.71-16.79,7.78-22.27,.13l-.29-.4c-3.21-4.48-4.95-9.83-4.99-15.34l-.26-34.38c-.02-2.04,.6-4.04,1.77-5.72l1.65-2.36c6.17-8.84,19.23-8.92,25.51-.15l1.76,2.46c1.18,1.65,1.83,3.63,1.84,5.66l.26,34.36c.04,5.53-1.64,10.94-4.81,15.48Z"/><path class="cls-1" d="M54.04,78.2l-8.28,11.3-8.5-11.33c-3.25-4.34-5.03-9.6-5.07-15.02l-.2-27.73,.99-1.36c6.1-8.32,18.49-8.38,24.68-.13l1.07,1.43,.2,27.69c.04,5.45-1.68,10.77-4.9,15.16Z"/><circle class="cls-5" cx="51.2" cy="65.88" r="6.04"/></g></g></svg>